<?xml version="1.0" encoding="UTF-8"?>
<svg width="25px" height="25px" viewBox="0 0 25 25" version="1.1" xmlns="http://www.w3.org/2000/svg" xmlns:xlink="http://www.w3.org/1999/xlink">
    <title>settings</title>
    <defs>
        <path d="M12.5,0 C14.2258898,0 15.625,1.39911016 15.625,3.125 L15.6249917,3.21459551 C15.626068,3.48446161 15.7872986,3.72791976 16.0455889,3.83868481 C16.298814,3.95044314 16.5945653,3.8968179 16.7842638,3.7113471 L16.8463542,3.64925693 C17.432505,3.06245367 18.2278878,2.73273613 19.0572917,2.73273613 C19.8866956,2.73273613 20.6820784,3.06245367 21.2674097,3.6484375 C21.854213,4.2345883 22.1839305,5.0299711 22.1839305,5.859375 C22.1839305,6.6887789 21.854213,7.4841617 21.2678196,8.0699029 L21.2133985,8.12423433 C21.0198488,8.32210137 20.9662235,8.61785268 21.0779819,8.87107777 C21.1074375,8.93781923 21.1297197,9.00728528 21.1445818,9.07830696 C21.2683992,9.26083964 21.4753514,9.37410539 21.6979167,9.375 L21.875,9.375 C23.6008898,9.375 25,10.7741102 25,12.5 C25,14.2258898 23.6008898,15.625 21.875,15.625 L21.7854045,15.6249917 C21.5155384,15.626068 21.2720802,15.7872986 21.1657707,16.0353453 C21.0495569,16.298814 21.1031821,16.5945653 21.2886529,16.7842638 L21.3507431,16.8463542 C21.9375463,17.432505 22.2672639,18.2278878 22.2672639,19.0572917 C22.2672639,19.8866956 21.9375463,20.6820784 21.3515625,21.2674097 C20.7654117,21.854213 19.9700289,22.1839305 19.140625,22.1839305 C18.3112211,22.1839305 17.5158383,21.854213 16.9300971,21.2678196 L16.8757657,21.2133985 C16.6778986,21.0198488 16.3821473,20.9662235 16.1186786,21.0824373 C15.8706319,21.1887469 15.7094014,21.4322051 15.7083333,21.6979167 L15.7083333,21.875 C15.7083333,23.6008898 14.3092232,25 12.5833333,25 C10.8574435,25 9.45833333,23.6008898 9.45833333,21.875 C9.45211679,21.5276645 9.27636859,21.2819425 8.9544111,21.1613152 C8.70118601,21.0495569 8.4054347,21.1031821 8.21573623,21.2886529 L8.15364583,21.3507431 C7.56749503,21.9375463 6.77211223,22.2672639 5.94270833,22.2672639 C5.11330443,22.2672639 4.31792164,21.9375463 3.73259027,21.3515625 C3.14578701,20.7654117 2.81606947,19.9700289 2.81606947,19.140625 C2.81606947,18.3112211 3.14578701,17.5158383 3.73218044,16.9300971 L3.78660147,16.8757657 C3.98015123,16.6778986 4.03377647,16.3821473 3.91756268,16.1186786 C3.81125309,15.8706319 3.56779494,15.7094014 3.30208333,15.7083333 L3.125,15.7083333 C1.39911016,15.7083333 0,14.3092232 0,12.5833333 C0,10.8574435 1.39911016,9.45833333 3.125,9.45833333 C3.47233548,9.45211679 3.71805749,9.27636859 3.83868481,8.9544111 C3.95044314,8.70118601 3.8968179,8.4054347 3.7113471,8.21573623 L3.64925693,8.15364583 C3.06245367,7.56749503 2.73273613,6.77211223 2.73273613,5.94270833 C2.73273613,5.11330443 3.06245367,4.31792164 3.6484375,3.73259027 C4.2345883,3.14578701 5.0299711,2.81606947 5.859375,2.81606947 C6.6887789,2.81606947 7.4841617,3.14578701 8.0699029,3.73218044 L8.12423433,3.78660147 C8.32210137,3.98015123 8.61785268,4.03377647 8.87107777,3.92201814 C8.93781923,3.89256247 9.00728528,3.87028032 9.07830696,3.85541818 C9.26083964,3.73160078 9.37410539,3.52464865 9.375,3.30208333 L9.375,3.125 C9.375,1.39911016 10.7741102,0 12.5,0 Z M12.5,2.08333333 C11.9247034,2.08333333 11.4583333,2.54970339 11.4583333,3.125 L11.458325,3.30623782 C11.453937,4.40646115 10.7966124,5.39902131 9.78534525,5.83243732 C9.6973243,5.87016196 9.60472425,5.89548285 9.51019368,5.90785634 C8.52574771,6.2529563 7.42148939,6.01349705 6.65926377,5.26781956 L6.59635417,5.20490973 C6.40097057,5.00930865 6.13584297,4.8994028 5.859375,4.8994028 C5.58290703,4.8994028 5.31777943,5.00930865 5.1215764,5.20572917 C4.92597531,5.40111277 4.81606947,5.66624037 4.81606947,5.94270833 C4.81606947,6.2191763 4.92597531,6.4843039 5.12198623,6.6800971 L5.19256519,6.75076567 C5.98165268,7.55745433 6.20027865,8.76320968 5.76930844,9.73456363 C5.37805673,10.7983643 4.37626698,11.5148761 3.21875,11.5416667 L3.125,11.5416667 C2.54970339,11.5416667 2.08333333,12.0080367 2.08333333,12.5833333 C2.08333333,13.1586299 2.54970339,13.625 3.125,13.625 L3.30623782,13.6250083 C4.40646115,13.6293964 5.39902131,14.286721 5.82798186,15.2877444 C6.28361198,16.3201237 6.06498601,17.525879 5.26781956,18.3407362 L5.20490973,18.4036458 C5.00930865,18.5990294 4.8994028,18.864157 4.8994028,19.140625 C4.8994028,19.417093 5.00930865,19.6822206 5.20572917,19.8784236 C5.40111277,20.0740247 5.66624037,20.1839305 5.94270833,20.1839305 C6.2191763,20.1839305 6.4843039,20.0740247 6.6800971,19.8780138 L6.75076567,19.8074348 C7.55745433,19.0183473 8.76320968,18.7997214 9.73456363,19.2306916 C10.7983643,19.6219433 11.5148761,20.623733 11.5416667,21.78125 L11.5416667,21.875 C11.5416667,22.4502966 12.0080367,22.9166667 12.5833333,22.9166667 C13.1586299,22.9166667 13.625,22.4502966 13.625,21.875 L13.6250083,21.6937622 C13.6293964,20.5935389 14.286721,19.6009787 15.2877444,19.1720181 C16.3201237,18.716388 17.525879,18.935014 18.3407362,19.7321804 L18.4036458,19.7950903 C18.5990294,19.9906914 18.864157,20.1005972 19.140625,20.1005972 C19.417093,20.1005972 19.6822206,19.9906914 19.8784236,19.7942708 C20.0740247,19.5988872 20.1839305,19.3337596 20.1839305,19.0572917 C20.1839305,18.7808237 20.0740247,18.5156961 19.8780138,18.3199029 L19.8074348,18.2492343 C19.0183473,17.4425457 18.7997214,16.2367903 19.2553515,15.2044111 C19.684312,14.2033876 20.6768722,13.546063 21.78125,13.5416667 L21.875,13.5416667 C22.4502966,13.5416667 22.9166667,13.0752966 22.9166667,12.5 C22.9166667,11.9247034 22.4502966,11.4583333 21.875,11.4583333 L21.6937622,11.458325 C20.5935389,11.453937 19.6009787,10.7966124 19.1675627,9.78534525 C19.129838,9.6973243 19.1045171,9.60472425 19.0921437,9.51019368 C18.7470437,8.52574771 18.9865029,7.42148939 19.7321804,6.65926377 L19.7950903,6.59635417 C19.9906914,6.40097057 20.1005972,6.13584297 20.1005972,5.859375 C20.1005972,5.58290703 19.9906914,5.31777943 19.7942708,5.1215764 C19.5988872,4.92597531 19.3337596,4.81606947 19.0572917,4.81606947 C18.7808237,4.81606947 18.5156961,4.92597531 18.3199029,5.12198623 L18.2492343,5.19256519 C17.4425457,5.98165268 16.2367903,6.20027865 15.2146547,5.74910399 C14.2033876,5.31568798 13.546063,4.32312781 13.5416667,3.21875 L13.5416667,3.125 C13.5416667,2.54970339 13.0752966,2.08333333 12.5,2.08333333 Z M12.5,8.33333333 C14.8011865,8.33333333 16.6666667,10.1988135 16.6666667,12.5 C16.6666667,14.8011865 14.8011865,16.6666667 12.5,16.6666667 C10.1988135,16.6666667 8.33333333,14.8011865 8.33333333,12.5 C8.33333333,10.1988135 10.1988135,8.33333333 12.5,8.33333333 Z M12.5,14.5833333 C13.6505932,14.5833333 14.5833333,13.6505932 14.5833333,12.5 C14.5833333,11.3494068 13.6505932,10.4166667 12.5,10.4166667 C11.3494068,10.4166667 10.4166667,11.3494068 10.4166667,12.5 C10.4166667,13.6505932 11.3494068,14.5833333 12.5,14.5833333 Z" id="path-1"></path>
    </defs>
    <g id="Timer---Main-Copy" stroke="none" stroke-width="1" fill="none" fill-rule="evenodd">
        <g id="settings">
            <mask id="mask-2" fill="white">
                <use xlink:href="#path-1"></use>
            </mask>
            <use id="Combined-Shape" fill="#FB8484" fill-rule="nonzero" xlink:href="#path-1"></use>
            <g id="Group" mask="url(#mask-2)" fill="#FB8484">
                <g id="COLOR/-black">
                    <rect id="Rectangle" x="0" y="0" width="25" height="25"></rect>
                </g>
            </g>
        </g>
    </g>
</svg>